<svg viewBox="0 0 285 216" fill="none" xmlns="http://www.w3.org/2000/svg"><path d="M201.133 3.66666C197.933 5.13333 193.4 8.46666 191 11C188.6 13.4 183.8 16.8667 180.2 18.4667C172.2 22.3333 164.2 30.0667 160.867 37.4C157.4 45.1333 157.533 48.2 161.4 47.2667C167.8 45.6667 183.267 45 187 46.0667C189.533 46.7333 191.133 48.2 191.4 49.9333C191.8 52.2 190.067 53.6667 182.733 57.5333C163.533 67.8 135.4 96.6 114.2 127.933C106.067 139.933 101.4 145.4 94.3333 151C69.8 170.6 37 189.133 7.26665 200.333C3.79999 201.667 0.599988 203.133 0.333321 203.8C-2.33335 207.933 48.2 205.933 72.3333 201C89 197.533 113.8 189.267 128.733 182.333C138.2 177.933 162.467 170.333 167.4 170.333C168.067 170.333 168.467 175 168.467 180.733C168.333 190.733 168.467 191.4 173.533 198.733C176.467 202.867 178.467 206.6 178.2 206.733C177.933 207 165.533 207.8 150.6 208.6C117.933 210.2 113 212.2 137.933 213.8C175.667 216.333 285 214.733 285 211.667C285 210.067 276.067 209.133 251.533 208.333C238.867 207.8 227 207.267 225.4 206.867C223.4 206.467 219.533 202.067 214.2 194.2C205.267 180.867 205 179.533 207.533 163.667C208.333 158.867 209 154.6 209 154.067C209 153.533 213 150.467 218.067 147.267C235.533 135.933 248.6 119.8 254.6 102.6C258.733 90.4667 258.867 65.4 254.733 50.3333C250.6 35.5333 241.8 15.9333 236.733 10.6C227.667 1.13333 213.133 -1.66667 201.133 3.66666ZM222.867 10.8667C229.533 13.6667 235.133 21.6667 241 36.6C259.667 84.0667 248.733 119.4 208.333 143.267C197 150.067 180.6 157.267 172.333 159L168.333 159.8L172.333 156.733C197 137.667 208.733 125.267 216.333 109.667C224.333 93.6667 225 80.6 218.467 68.0667C215.4 62.0667 208.2 55 204.067 53.6667C202.333 53.2667 201 51.8 201 50.3333C201 41.8 193.133 37 179.533 37C171.4 37 171.4 37 173.267 33.9333C174.333 32.3333 179.133 29 183.8 26.6C188.467 24.2 193.8 20.4667 195.667 18.3333C203.267 9.66666 213.4 6.86666 222.867 10.8667ZM205.933 65.2667C217.533 76.0667 216.733 96.2 204.067 114.733C192.333 131.933 159.533 157.667 131 172.067C121.133 176.867 97.9333 186.333 95.6666 186.333C92.8666 186.333 94.6 181.133 102.2 165.667C127.933 113.533 180.467 57.5333 199.667 61.8C201.533 62.2 204.333 63.8 205.933 65.2667ZM199.267 163.267C196.067 182.867 196.067 182.2 204.067 194.333C208.2 200.467 211.267 205.933 210.867 206.6C210.467 207.133 205.933 207.667 200.733 207.667C191.933 207.667 191.133 207.4 187.4 203.4C181.133 196.733 177 187.267 177 180.067C177.133 169.533 179.267 166.333 189.133 162.2C193.8 160.2 198.2 158.467 198.867 158.467C199.533 158.333 199.667 160.6 199.267 163.267ZM92.4666 165.667C92.0666 166.867 89.5333 172.733 86.8666 179C82.0666 190.067 82.0666 190.067 75.9333 191.533C64.3333 194.067 53.9333 195.667 47.8 195.667H41.8L59.8 184.867C69.6667 179 80.7333 171.8 84.3333 169C91.5333 163.4 93.6666 162.467 92.4666 165.667Z" fill="currentColor"></path></svg>
